<svg width="131" height="40" viewBox="0 0 131 40" fill="none" xmlns="http://www.w3.org/2000/svg">
<path d="M15.7929 8.5957V8.59675C15.776 8.62583 12.2955 14.6297 7.95067 21.96C3.59532 29.3081 0 35.1911 0 35.1911L12.3315 35.137L12.3323 35.1369L12.3297 35.1464C18.3172 35.0304 23.7182 31.0939 25.3119 25.1458C25.8102 23.2864 25.8853 21.4147 25.5964 19.626C24.8043 14.3587 20.9149 10.075 15.7929 8.5957Z" fill="black"/>
<path d="M22.6074 4.80957V4.81061C22.5905 4.83969 19.1099 10.8435 14.7651 18.1739C10.4098 25.522 6.81445 31.4049 6.81445 31.4049L19.1459 31.3509L19.1467 31.3507L19.1442 31.3603C25.1317 31.2443 30.5326 27.3078 32.1264 21.3597C32.6246 19.5003 32.6998 17.6286 32.4108 15.8398C31.6187 10.5726 27.7294 6.28883 22.6074 4.80957Z" fill="#10F2C5"/>
<path d="M48.6486 29H42.186V10.7696H48.702C50.5357 10.7696 52.1142 11.1346 53.4376 11.8645C54.7609 12.5885 55.7787 13.63 56.4908 14.989C57.2089 16.3479 57.5679 17.974 57.5679 19.867C57.5679 21.766 57.2089 23.398 56.4908 24.7629C55.7787 26.1278 54.755 27.1752 53.4198 27.9051C52.0905 28.635 50.5001 29 48.6486 29ZM46.0404 25.6975H48.4883C49.6277 25.6975 50.5861 25.4958 51.3635 25.0922C52.1469 24.6828 52.7344 24.0507 53.126 23.1962C53.5236 22.3357 53.7224 21.226 53.7224 19.867C53.7224 18.5199 53.5236 17.4191 53.126 16.5645C52.7344 15.71 52.1498 15.081 51.3724 14.6774C50.595 14.2739 49.6366 14.0721 48.4972 14.0721H46.0404V25.6975ZM65.3901 29.2225C64.3516 29.2225 63.411 28.9555 62.5683 28.4214C61.7316 27.8814 61.0669 27.0891 60.5744 26.0447C60.0878 24.9943 59.8445 23.7066 59.8445 22.1814C59.8445 20.6147 60.0967 19.3122 60.6011 18.2736C61.1055 17.2292 61.7761 16.4488 62.6128 15.9325C63.4555 15.4103 64.3783 15.1492 65.3812 15.1492C66.1468 15.1492 66.7847 15.2798 67.2951 15.5409C67.8113 15.796 68.2268 16.1165 68.5413 16.5022C68.8617 16.882 69.105 17.2559 69.2712 17.6238H69.3869V10.7696H73.1701V29H69.4314V26.8102H69.2712C69.0932 27.19 68.841 27.5669 68.5146 27.9407C68.1941 28.3086 67.7757 28.6143 67.2594 28.8576C66.7491 29.1009 66.126 29.2225 65.3901 29.2225ZM66.5918 26.2049C67.2031 26.2049 67.7194 26.0388 68.1407 25.7064C68.568 25.3682 68.8944 24.8964 69.1199 24.2911C69.3513 23.6858 69.467 22.9766 69.467 22.1636C69.467 21.3506 69.3543 20.6444 69.1288 20.0451C68.9033 19.4457 68.5769 18.9828 68.1496 18.6564C67.7223 18.33 67.2031 18.1668 66.5918 18.1668C65.9687 18.1668 65.4435 18.336 65.0163 18.6742C64.589 19.0125 64.2656 19.4813 64.046 20.0807C63.8264 20.68 63.7166 21.3743 63.7166 22.1636C63.7166 22.9588 63.8264 23.662 64.046 24.2733C64.2715 24.8786 64.5949 25.3533 65.0163 25.6975C65.4435 26.0358 65.9687 26.2049 66.5918 26.2049ZM87.664 19.2261L84.1924 19.4397C84.1331 19.143 84.0055 18.876 83.8096 18.6386C83.6138 18.3953 83.3557 18.2024 83.0352 18.06C82.7207 17.9116 82.3439 17.8375 81.9047 17.8375C81.3172 17.8375 80.8217 17.9621 80.4182 18.2113C80.0146 18.4546 79.8128 18.781 79.8128 19.1905C79.8128 19.5169 79.9434 19.7928 80.2045 20.0183C80.4656 20.2439 80.9137 20.4248 81.5486 20.5613L84.0233 21.0598C85.3526 21.3328 86.3436 21.7719 86.9964 22.3773C87.6492 22.9826 87.9756 23.7778 87.9756 24.7629C87.9756 25.659 87.7115 26.4453 87.1833 27.1218C86.6611 27.7983 85.943 28.3265 85.0291 28.7062C84.1212 29.0801 83.0738 29.267 81.8869 29.267C80.0769 29.267 78.6349 28.8902 77.5608 28.1366C76.4926 27.377 75.8665 26.3444 75.6825 25.0388L79.4123 24.843C79.525 25.3949 79.798 25.8162 80.2312 26.107C80.6644 26.3918 81.2193 26.5343 81.8958 26.5343C82.5605 26.5343 83.0945 26.4067 83.4981 26.1515C83.9076 25.8904 84.1153 25.5551 84.1212 25.1456C84.1153 24.8014 83.9699 24.5196 83.685 24.3C83.4002 24.0745 82.961 23.9024 82.3676 23.7837L79.9998 23.3119C78.6645 23.0449 77.6705 22.582 77.0178 21.9233C76.3709 21.2646 76.0475 20.4248 76.0475 19.4041C76.0475 18.5259 76.2849 17.7692 76.7596 17.1342C77.2403 16.4993 77.9139 16.0097 78.7803 15.6655C79.6526 15.3213 80.6733 15.1492 81.8424 15.1492C83.5693 15.1492 84.9283 15.5142 85.9193 16.2441C86.9163 16.974 87.4978 17.968 87.664 19.2261ZM96.5233 34.4121C95.2949 34.4121 94.2415 34.243 93.3632 33.9047C92.4909 33.5724 91.7965 33.1184 91.2803 32.5428C90.764 31.9672 90.4287 31.3203 90.2744 30.6023L93.7816 30.1305C93.8884 30.4035 94.0575 30.6587 94.289 30.896C94.5204 31.1334 94.826 31.3233 95.2058 31.4657C95.5916 31.6141 96.0604 31.6883 96.6123 31.6883C97.4372 31.6883 98.1166 31.4865 98.6507 31.083C99.1908 30.6854 99.4608 30.0177 99.4608 29.0801V26.5788H99.3005C99.1344 26.9586 98.8851 27.3176 98.5528 27.6559C98.2205 27.9941 97.7932 28.2701 97.271 28.4837C96.7488 28.6973 96.1257 28.8042 95.4017 28.8042C94.375 28.8042 93.4404 28.5668 92.5977 28.092C91.7609 27.6114 91.0933 26.8785 90.5948 25.8934C90.1023 24.9023 89.856 23.6502 89.856 22.1369C89.856 20.588 90.1082 19.2944 90.6126 18.2558C91.1171 17.2173 91.7876 16.4399 92.6244 15.9236C93.4671 15.4073 94.3899 15.1492 95.3928 15.1492C96.1583 15.1492 96.7992 15.2798 97.3155 15.5409C97.8318 15.796 98.2472 16.1165 98.5617 16.5022C98.8822 16.882 99.1284 17.2559 99.3005 17.6238H99.443V15.3272H103.208V29.1335C103.208 30.2967 102.923 31.2699 102.354 32.0532C101.784 32.8366 100.995 33.4241 99.986 33.8157C98.9831 34.2133 97.8288 34.4121 96.5233 34.4121ZM96.6034 25.9557C97.2146 25.9557 97.7309 25.8043 98.1522 25.5017C98.5795 25.1931 98.9059 24.754 99.1314 24.1843C99.3629 23.6086 99.4786 22.9202 99.4786 22.1191C99.4786 21.318 99.3658 20.6237 99.1403 20.0361C98.9148 19.4427 98.5884 18.9828 98.1611 18.6564C97.7339 18.33 97.2146 18.1668 96.6034 18.1668C95.9803 18.1668 95.4551 18.336 95.0278 18.6742C94.6005 19.0065 94.2771 19.4694 94.0575 20.0629C93.838 20.6563 93.7282 21.3417 93.7282 22.1191C93.7282 22.9084 93.838 23.5908 94.0575 24.1665C94.283 24.7362 94.6065 25.1783 95.0278 25.4928C95.4551 25.8014 95.9803 25.9557 96.6034 25.9557ZM110.018 21.0954V29H106.226V15.3272H109.84V17.7396H110C110.303 16.9443 110.81 16.3153 111.522 15.8524C112.234 15.3836 113.098 15.1492 114.113 15.1492C115.062 15.1492 115.89 15.3569 116.596 15.7723C117.302 16.1877 117.851 16.7812 118.243 17.5526C118.635 18.3182 118.831 19.232 118.831 20.2943V29H115.038V20.9708C115.044 20.1341 114.831 19.4813 114.398 19.0125C113.964 18.5377 113.368 18.3003 112.608 18.3003C112.098 18.3003 111.647 18.4101 111.255 18.6297C110.87 18.8493 110.567 19.1697 110.347 19.5911C110.134 20.0065 110.024 20.5079 110.018 21.0954ZM121.819 29V15.3272H125.496V17.7128H125.638C125.887 16.8642 126.306 16.2233 126.893 15.7901C127.481 15.351 128.157 15.1314 128.923 15.1314C129.113 15.1314 129.317 15.1433 129.537 15.167C129.756 15.1907 129.949 15.2234 130.115 15.2649V18.6297C129.937 18.5763 129.691 18.5288 129.377 18.4873C129.062 18.4457 128.774 18.425 128.513 18.425C127.955 18.425 127.457 18.5466 127.018 18.7899C126.585 19.0273 126.24 19.3596 125.985 19.7869C125.736 20.2142 125.611 20.7067 125.611 21.2646V29H121.819Z" fill="black"/>
</svg>
